HIERARCHY
ROOT Hips
{
	OFFSET 0.000000 0.000000 0.000000
	CHANNELS 6 Xposition Yposition Zposition Yrotation Xrotation Zrotation
	JOINT Chest
	{
		OFFSET 0.000000 -0.009281 11.569106
		CHANNELS 3 Yrotation Xrotation Zrotation
		JOINT Chest2
		{
			OFFSET -0.000000 0.016865 9.269641
			CHANNELS 3 Yrotation Xrotation Zrotation
			JOINT Chest3
			{
				OFFSET -0.000000 0.000001 8.374491
				CHANNELS 3 Yrotation Xrotation Zrotation
				JOINT Chest4
				{
					OFFSET -0.000000 0.000001 8.374493
					CHANNELS 3 Yrotation Xrotation Zrotation
					JOINT Neck
					{
						OFFSET -0.000000 0.000002 12.152554
						CHANNELS 3 Yrotation Xrotation Zrotation
						JOINT Head
						{
							OFFSET -0.000000 0.040101 7.802319
							CHANNELS 3 Yrotation Xrotation Zrotation
							End Site
							{
								OFFSET -0.000000 0.020947 14.853096
							}
						}
					}
					JOINT RightCollar
					{
						OFFSET 2.894404 0.000001 6.791374
						CHANNELS 3 Yrotation Xrotation Zrotation
						JOINT RightShoulder
						{
							OFFSET 13.574684 0.000001 0.000000
							CHANNELS 3 Yrotation Xrotation Zrotation
							JOINT RightElbow
							{
								OFFSET 23.923903 0.000002 0.000000
								CHANNELS 3 Yrotation Xrotation Zrotation
								JOINT RightWrist
								{
									OFFSET 19.846718 0.012767 0.000000
									CHANNELS 3 Yrotation Xrotation Zrotation
									End Site
									{
										OFFSET 14.973145 0.000001 0.000000
									}
								}
							}
						}
					}
					JOINT LeftCollar
					{
						OFFSET -2.894404 0.000001 6.791374
						CHANNELS 3 Yrotation Xrotation Zrotation
						JOINT LeftShoulder
						{
							OFFSET -13.574684 -0.000001 0.000000
							CHANNELS 3 Yrotation Xrotation Zrotation
							JOINT LeftElbow
							{
								OFFSET -23.923903 -0.000002 0.000000
								CHANNELS 3 Yrotation Xrotation Zrotation
								JOINT LeftWrist
								{
									OFFSET -19.846718 0.012763 0.000000
									CHANNELS 3 Yrotation Xrotation Zrotation
									End Site
									{
										OFFSET -14.973145 -0.000001 0.000000
									}
								}
							}
						}
					}
				}
			}
		}
	}
	JOINT RightHip
	{
		OFFSET 9.469263 0.004643 0.045487
		CHANNELS 3 Yrotation Xrotation Zrotation
		JOINT RightKnee
		{
			OFFSET 0.000000 0.002661 -40.478676
			CHANNELS 3 Yrotation Xrotation Zrotation
			JOINT RightAnkle
			{
				OFFSET 0.000000 0.049106 -35.224068
				CHANNELS 3 Yrotation Xrotation Zrotation
				JOINT RightToe
				{
					OFFSET -0.000001 12.539529 -6.151390
					CHANNELS 3 Yrotation Xrotation Zrotation
					End Site
					{
						OFFSET -0.000001 5.044994 -1.291870
					}
				}
			}
		}
	}
	JOINT LeftHip
	{
		OFFSET -9.469263 0.004641 0.045487
		CHANNELS 3 Yrotation Xrotation Zrotation
		JOINT LeftKnee
		{
			OFFSET 0.000000 0.002661 -40.478676
			CHANNELS 3 Yrotation Xrotation Zrotation
			JOINT LeftAnkle
			{
				OFFSET 0.000000 0.049106 -35.224068
				CHANNELS 3 Yrotation Xrotation Zrotation
				JOINT LeftToe
				{
					OFFSET -0.000001 12.539529 -6.151390
					CHANNELS 3 Yrotation Xrotation Zrotation
					End Site
					{
						OFFSET -0.000001 5.044994 -1.291870
					}
				}
			}
		}
	}
}
MOTION
Frames: 9
Frame Time: 0.016667
12.336150 -1.946922 82.286591 -9.387849 -2.322215 -94.702765 -1.978343 -4.714037 5.381229 -0.775672 -2.096327 2.387407 -0.775673 -2.096327 2.387407 -0.573508 -1.575306 1.787696 9.024177 -24.827413 -11.319232 13.388646 -9.512477 -18.052091 11.285643 2.121315 -17.439134 69.142524 21.528876 -7.151929 9.369808 22.569440 8.464182 34.228240 14.908047 -2.658448 -8.348352 -10.905762 -16.162094 -73.152166 27.003961 -10.851957 -22.872603 14.338147 -36.063860 -7.142190 9.160282 -18.923522 1.173759 -8.313430 -11.420069 6.735736 -12.197640 -8.412440 -2.427195 12.963363 -3.017359 0.873916 0.239997 0.044733 3.661188 -4.106650 -7.095755 1.957009 -23.553250 -1.617941 -0.036430 12.788382 4.476772 -0.393312 -0.357654 -0.032721 
12.431309 -1.762642 82.341644 -9.266881 -2.146756 -94.226927 -1.943398 -4.638995 5.457950 -0.763111 -2.070031 2.419016 -0.763110 -2.070031 2.419016 -0.564084 -1.555575 1.811481 9.254893 -24.599164 -11.878478 13.641667 -9.066353 -18.982696 11.226463 2.194450 -17.428672 67.934346 21.253609 -7.485494 8.027508 20.497512 6.918028 33.927278 13.142311 -4.189465 -8.382283 -10.820556 -16.127538 -73.128561 27.335387 -10.723807 -22.655662 14.500051 -35.810620 -7.487665 9.019465 -18.656459 1.068680 -8.335284 -11.443417 6.656496 -11.949348 -8.518271 -2.734985 12.734809 -3.316165 1.055770 0.308574 0.048833 3.357387 -4.213519 -7.501902 2.058892 -23.001451 -1.704648 0.144917 12.637554 4.628148 -0.352117 -0.429308 -0.036083 
12.517603 -1.561894 82.398499 -9.131376 -1.980056 -93.734914 -1.915875 -4.578031 5.542029 -0.751504 -2.043401 2.459556 -0.751504 -2.043401 2.459556 -0.555352 -1.535607 1.841962 9.497753 -24.369234 -12.438727 13.913660 -8.616537 -19.912182 11.192469 2.196046 -17.410229 66.811319 20.992585 -7.627812 6.693261 18.361372 5.408829 33.663018 11.336330 -5.594494 -8.342505 -10.767949 -16.140847 -73.162411 27.546392 -10.697167 -22.354700 14.747545 -35.504218 -7.737878 8.810112 -18.438085 0.954847 -8.361101 -11.524985 6.580491 -11.677010 -8.621450 -2.980875 12.488084 -3.548842 1.166946 0.364684 0.053000 3.078180 -4.310554 -7.940881 2.138523 -22.427105 -1.786719 0.311717 12.468077 4.733132 -0.302326 -0.484056 -0.039401 
12.601963 -1.359144 82.456093 -8.991991 -1.828566 -93.233441 -1.884793 -4.517342 5.633184 -0.739437 -2.011178 2.507036 -0.739438 -2.011178 2.507036 -0.546278 -1.511450 1.877653 9.748180 -24.154658 -13.003313 14.197498 -8.194652 -20.848514 11.132936 2.270184 -17.403303 65.714350 20.748604 -7.754545 5.467445 16.336165 3.964717 33.370474 9.702977 -6.998988 -8.336748 -10.645611 -16.165760 -73.089383 27.675423 -10.603564 -22.007930 14.963664 -35.088686 -7.850812 8.657120 -18.252245 0.845453 -8.413564 -11.697697 6.501387 -11.372183 -8.686351 -3.152387 12.237084 -3.749575 1.205502 0.403500 0.053273 2.831955 -4.400262 -8.348794 2.199809 -21.856127 -1.813278 0.428744 12.290429 4.710578 -0.226729 -0.516310 -0.036252 
12.689884 -1.155743 82.512436 -8.857329 -1.671674 -92.722994 -1.863375 -4.454246 5.728399 -0.726685 -1.970871 2.560731 -0.726686 -1.970871 2.560732 -0.536710 -1.481231 1.918019 9.997060 -23.958591 -13.576058 14.476565 -7.807165 -21.800991 11.094876 2.310996 -17.362484 64.600428 20.468528 -7.794416 4.370944 14.223737 2.616584 32.996958 8.038543 -8.345465 -8.383133 -10.493051 -16.186351 -72.953496 27.747775 -10.491947 -21.597132 15.152643 -34.560846 -7.920156 8.584820 -18.132827 0.712613 -8.481085 -11.926437 6.435520 -11.067064 -8.761574 -3.259394 11.972207 -3.865770 1.194794 0.455457 0.058187 2.601928 -4.495830 -8.649831 2.271627 -21.287570 -1.826651 0.464734 12.109633 4.598513 -0.117172 -0.527741 -0.026923 
12.771994 -0.959911 82.564682 -8.694091 -1.524191 -92.244553 -1.834660 -4.351608 5.846088 -0.716179 -1.924285 2.615928 -0.716178 -1.924285 2.615929 -0.528856 -1.446313 1.959510 10.236278 -23.775716 -14.146476 14.738626 -7.445197 -22.752685 11.059293 2.271085 -17.331407 63.494695 20.132739 -7.696601 3.399487 11.813371 1.384669 32.590213 6.165162 -9.763832 -8.416176 -10.357993 -16.174706 -72.833551 27.825236 -10.383386 -21.208540 15.303491 -34.023078 -7.879905 8.522483 -18.027697 0.582789 -8.518710 -12.135358 6.369466 -10.770287 -8.858175 -3.315722 11.742078 -3.957606 1.148711 0.476054 0.046116 2.415644 -4.569576 -8.808280 2.333084 -20.699319 -1.829410 0.421265 11.908703 4.374724 0.022881 -0.519588 -0.016025 
12.853051 -0.772895 82.613266 -8.533016 -1.362798 -91.789990 -1.819784 -4.239390 5.974990 -0.712882 -1.877189 2.671614 -0.712881 -1.877189 2.671615 -0.526416 -1.411042 2.001345 10.469926 -23.598085 -14.707556 14.992016 -7.093819 -23.689599 10.999521 2.274561 -17.333091 62.441897 19.652462 -7.457941 2.426373 9.082348 0.160451 32.278969 4.171433 -11.250485 -8.449131 -10.232437 -16.183838 -72.743031 27.932958 -10.267642 -20.782558 15.449775 -33.510404 -7.718247 8.377370 -17.954621 0.438736 -8.551453 -12.318687 6.300636 -10.485752 -8.989270 -3.342562 11.526159 -4.012365 1.090001 0.487735 0.030696 2.241288 -4.662680 -8.884693 2.382964 -20.079102 -1.881919 0.313420 11.683174 4.142452 0.186374 -0.496349 -0.002074 
12.933304 -0.595556 82.658791 -8.374179 -1.191877 -91.373062 -1.830457 -4.132364 6.132027 -0.724664 -1.842990 2.728736 -0.724663 -1.842990 2.728736 -0.535231 -1.385513 2.044193 10.711909 -23.408935 -15.245662 15.262971 -6.720713 -24.582722 10.938016 2.317218 -17.345684 61.523626 19.042166 -7.052785 1.461709 6.278964 -1.005840 32.041616 2.259272 -12.719306 -8.432260 -10.082000 -16.219082 -72.661963 28.026273 -10.164435 -20.332515 15.588303 -32.999011 -7.431948 8.126937 -17.970178 0.286311 -8.577203 -12.429460 6.224427 -10.216619 -9.176656 -3.341670 11.344614 -4.035803 1.024336 0.473305 0.006996 2.082597 -4.767046 -8.894909 2.412146 -19.443508 -1.996577 0.165977 11.433529 3.911128 0.353535 -0.458796 0.011801 
13.016247 -0.421187 82.701515 -8.237575 -1.000220 -90.957178 -1.882172 -4.059076 6.289160 -0.749245 -1.820542 2.789157 -0.749246 -1.820543 2.789159 -0.553590 -1.368862 2.089463 10.959973 -23.205207 -15.755573 15.548391 -6.320253 -25.423083 10.908585 2.332282 -17.354671 60.710423 18.360153 -6.464847 0.578589 3.781796 -2.042495 31.748905 0.504376 -14.035777 -8.338385 -9.955243 -16.294967 -72.612554 28.124337 -10.094679 -19.846605 15.670768 -32.519873 -7.146614 7.903159 -17.997692 0.118482 -8.630668 -12.524936 6.143211 -9.931284 -9.412245 -3.323295 11.134104 -3.991240 0.962236 0.478151 -0.008026 1.905173 -4.893176 -8.943445 2.426762 -18.816401 -2.140230 -0.005718 11.158458 3.753501 0.511533 -0.402900 0.026070 
